<svg xmlns="http://www.w3.org/2000/svg" viewBox="18 18 72 72"><defs><clipPath id="r"><rect x="18" y="18" width="72" height="72" rx="16"/></clipPath><linearGradient id="g1" gradientUnits="userSpaceOnUse" x1="0" y1="0" x2="108" y2="108"><stop offset="0.0" stop-color="#0B131E" stop-opacity="1"/><stop offset="0.5" stop-color="#08202A" stop-opacity="1"/><stop offset="1.0" stop-color="#041217" stop-opacity="1"/></linearGradient><linearGradient id="g2" gradientUnits="userSpaceOnUse" x1="54" y1="22" x2="54" y2="86"><stop offset="0.0" stop-color="#00E5FF" stop-opacity="0.2"/><stop offset="1.0" stop-color="#00FFAA" stop-opacity="0.067"/></linearGradient></defs><g clip-path="url(#r)"><path d="M0,0h108v108h-108z" fill="url(#g1)"/><path d="M54,22 C67,22 80,26 80,26 C80,48 74,72 54,86 C34,72 28,48 28,26 C28,26 41,22 54,22 Z" fill="url(#g2)" stroke="#00E5FF" stroke-width="2.5" stroke-linecap="round" stroke-linejoin="round"/><path d="M49,30 L59,30 L59,33 L49,33 Z" fill="#00E5FF"/><path d="M42,33 L66,33 A3,3 0 0,1 69,36 L69,68 A3,3 0 0,1 66,71 L42,71 A3,3 0 0,1 39,68 L39,36 A3,3 0 0,1 42,33 Z" fill="#151E28" stroke="#00E5FF" stroke-width="2"/><path d="M43,58 L65,58 L65,67 L43,67 Z" fill="#00E676"/><path d="M43,47 L65,47 L65,56 L43,56 Z" fill="#00E676"/><path d="M56,36 L47,50 L53,50 L51,64 L61,48 L55,48 Z" fill="#FFFFFF"/><path d="M54,78 A3,3 0 1,1 54,72 A3,3 0 1,1 54,78 Z" fill="#00E5FF"/></g></svg>
